<mxfile host="app.diagrams.net" modified="2022-05-03T13:57:07.010Z" agent="5.0 (Macintosh; Intel Mac OS X 10_15_7) AppleWebKit/537.36 (KHTML, like Gecko) Chrome/100.0.4896.127 Safari/537.36" etag="nwe7qN4KEe4OV238vK1E" version="17.5.0" type="github">
  <diagram id="_oavSCnih4RdVo1CVR3v" name="第 1 页">
    <mxGraphModel dx="932" dy="644" grid="1" gridSize="10" guides="1" tooltips="1" connect="1" arrows="1" fold="1" page="1" pageScale="1" pageWidth="827" pageHeight="1169" math="0" shadow="0">
      <root>
        <mxCell id="0" />
        <mxCell id="1" parent="0" />
        <mxCell id="WFKwsRUmoUcgAKDtaNSG-1" value="&lt;span style=&quot;font-size: 37px&quot;&gt;2&lt;/span&gt;" style="rounded=0;whiteSpace=wrap;html=1;fillColor=#1ba1e2;strokeColor=#006EAF;fontColor=#ffffff;" vertex="1" parent="1">
          <mxGeometry x="210" y="510" width="80" height="70" as="geometry" />
        </mxCell>
        <mxCell id="WFKwsRUmoUcgAKDtaNSG-2" value="&lt;span style=&quot;font-size: 37px&quot;&gt;4&lt;/span&gt;" style="rounded=0;whiteSpace=wrap;html=1;fillColor=#1ba1e2;strokeColor=#006EAF;fontColor=#ffffff;" vertex="1" parent="1">
          <mxGeometry x="290" y="510" width="80" height="70" as="geometry" />
        </mxCell>
        <mxCell id="WFKwsRUmoUcgAKDtaNSG-3" value="&lt;span style=&quot;font-size: 37px&quot;&gt;1&lt;/span&gt;" style="rounded=0;whiteSpace=wrap;html=1;fillColor=#1ba1e2;strokeColor=#006EAF;fontColor=#ffffff;" vertex="1" parent="1">
          <mxGeometry x="370" y="510" width="80" height="70" as="geometry" />
        </mxCell>
        <mxCell id="WFKwsRUmoUcgAKDtaNSG-4" value="&lt;span style=&quot;font-size: 37px&quot;&gt;3&lt;/span&gt;" style="rounded=0;whiteSpace=wrap;html=1;fillColor=#1ba1e2;strokeColor=#006EAF;fontColor=#ffffff;" vertex="1" parent="1">
          <mxGeometry x="450" y="510" width="80" height="70" as="geometry" />
        </mxCell>
        <mxCell id="WFKwsRUmoUcgAKDtaNSG-5" value="&lt;span style=&quot;font-size: 37px&quot;&gt;4&lt;/span&gt;" style="rounded=0;whiteSpace=wrap;html=1;fillColor=#1ba1e2;strokeColor=#006EAF;fontColor=#ffffff;" vertex="1" parent="1">
          <mxGeometry x="530" y="510" width="80" height="70" as="geometry" />
        </mxCell>
        <mxCell id="WFKwsRUmoUcgAKDtaNSG-6" value="&lt;span style=&quot;font-size: 37px&quot;&gt;0&lt;/span&gt;" style="rounded=0;whiteSpace=wrap;html=1;fillColor=#6a00ff;strokeColor=#3700CC;strokeWidth=2;fontColor=#ffffff;" vertex="1" parent="1">
          <mxGeometry x="210" y="730" width="80" height="70" as="geometry" />
        </mxCell>
        <mxCell id="WFKwsRUmoUcgAKDtaNSG-7" value="&lt;span style=&quot;font-size: 37px&quot;&gt;1&lt;/span&gt;" style="rounded=0;whiteSpace=wrap;html=1;fillColor=#6a00ff;strokeColor=#3700CC;strokeWidth=2;fontColor=#ffffff;" vertex="1" parent="1">
          <mxGeometry x="290" y="730" width="80" height="70" as="geometry" />
        </mxCell>
        <mxCell id="WFKwsRUmoUcgAKDtaNSG-8" value="&lt;span style=&quot;font-size: 37px&quot;&gt;1&lt;/span&gt;" style="rounded=0;whiteSpace=wrap;html=1;fillColor=#6a00ff;strokeColor=#3700CC;strokeWidth=2;fontColor=#ffffff;" vertex="1" parent="1">
          <mxGeometry x="370" y="730" width="80" height="70" as="geometry" />
        </mxCell>
        <mxCell id="WFKwsRUmoUcgAKDtaNSG-9" value="&lt;span style=&quot;font-size: 37px&quot;&gt;1&lt;/span&gt;" style="rounded=0;whiteSpace=wrap;html=1;fillColor=#6a00ff;strokeColor=#3700CC;strokeWidth=2;fontColor=#ffffff;" vertex="1" parent="1">
          <mxGeometry x="450" y="730" width="80" height="70" as="geometry" />
        </mxCell>
        <mxCell id="WFKwsRUmoUcgAKDtaNSG-10" value="&lt;span style=&quot;font-size: 37px&quot;&gt;2&lt;/span&gt;" style="rounded=0;whiteSpace=wrap;html=1;fillColor=#6a00ff;strokeColor=#3700CC;strokeWidth=2;fontColor=#ffffff;" vertex="1" parent="1">
          <mxGeometry x="530" y="730" width="80" height="70" as="geometry" />
        </mxCell>
        <mxCell id="WFKwsRUmoUcgAKDtaNSG-11" value="Counter" style="text;strokeColor=none;fillColor=none;html=1;fontSize=24;fontStyle=1;verticalAlign=middle;align=center;" vertex="1" parent="1">
          <mxGeometry x="100" y="745" width="100" height="40" as="geometry" />
        </mxCell>
        <mxCell id="WFKwsRUmoUcgAKDtaNSG-12" value="Arrays" style="text;strokeColor=none;fillColor=none;html=1;fontSize=24;fontStyle=1;verticalAlign=middle;align=center;" vertex="1" parent="1">
          <mxGeometry x="100" y="525" width="100" height="40" as="geometry" />
        </mxCell>
        <mxCell id="WFKwsRUmoUcgAKDtaNSG-13" value="0&lt;span style=&quot;color: rgba(0 , 0 , 0 , 0) ; font-family: monospace ; font-size: 0px ; font-weight: 400&quot;&gt;%3CmxGraphModel%3E%3Croot%3E%3CmxCell%20id%3D%220%22%2F%3E%3CmxCell%20id%3D%221%22%20parent%3D%220%22%2F%3E%3CmxCell%20id%3D%222%22%20value%3D%22Counter%22%20style%3D%22text%3BstrokeColor%3Dnone%3BfillColor%3Dnone%3Bhtml%3D1%3BfontSize%3D24%3BfontStyle%3D1%3BverticalAlign%3Dmiddle%3Balign%3Dcenter%3B%22%20vertex%3D%221%22%20parent%3D%221%22%3E%3CmxGeometry%20x%3D%22100%22%20y%3D%22745%22%20width%3D%22100%22%20height%3D%2240%22%20as%3D%22geometry%22%2F%3E%3C%2FmxCell%3E%3C%2Froot%3E%3C%2FmxGraphModel%3E&lt;/span&gt;" style="text;strokeColor=none;fillColor=none;html=1;fontSize=24;fontStyle=1;verticalAlign=middle;align=center;" vertex="1" parent="1">
          <mxGeometry x="200" y="820" width="100" height="40" as="geometry" />
        </mxCell>
        <mxCell id="WFKwsRUmoUcgAKDtaNSG-14" value="1" style="text;strokeColor=none;fillColor=none;html=1;fontSize=24;fontStyle=1;verticalAlign=middle;align=center;" vertex="1" parent="1">
          <mxGeometry x="280" y="820" width="100" height="40" as="geometry" />
        </mxCell>
        <mxCell id="WFKwsRUmoUcgAKDtaNSG-15" value="2" style="text;strokeColor=none;fillColor=none;html=1;fontSize=24;fontStyle=1;verticalAlign=middle;align=center;" vertex="1" parent="1">
          <mxGeometry x="364" y="820" width="100" height="40" as="geometry" />
        </mxCell>
        <mxCell id="WFKwsRUmoUcgAKDtaNSG-16" value="3" style="text;strokeColor=none;fillColor=none;html=1;fontSize=24;fontStyle=1;verticalAlign=middle;align=center;" vertex="1" parent="1">
          <mxGeometry x="440" y="820" width="100" height="40" as="geometry" />
        </mxCell>
        <mxCell id="WFKwsRUmoUcgAKDtaNSG-17" value="4" style="text;strokeColor=none;fillColor=none;html=1;fontSize=24;fontStyle=1;verticalAlign=middle;align=center;" vertex="1" parent="1">
          <mxGeometry x="520" y="820" width="100" height="40" as="geometry" />
        </mxCell>
        <mxCell id="WFKwsRUmoUcgAKDtaNSG-18" value="" style="endArrow=classic;html=1;rounded=0;fontSize=37;strokeWidth=2;exitX=0.5;exitY=1;exitDx=0;exitDy=0;" edge="1" parent="1" source="WFKwsRUmoUcgAKDtaNSG-2">
          <mxGeometry width="50" height="50" relative="1" as="geometry">
            <mxPoint x="250" y="590" as="sourcePoint" />
            <mxPoint x="560" y="720" as="targetPoint" />
          </mxGeometry>
        </mxCell>
        <mxCell id="WFKwsRUmoUcgAKDtaNSG-19" value="" style="endArrow=classic;html=1;rounded=0;fontSize=37;strokeWidth=2;exitX=0.5;exitY=1;exitDx=0;exitDy=0;" edge="1" parent="1" source="WFKwsRUmoUcgAKDtaNSG-5">
          <mxGeometry width="50" height="50" relative="1" as="geometry">
            <mxPoint x="570" y="590" as="sourcePoint" />
            <mxPoint x="560" y="710" as="targetPoint" />
          </mxGeometry>
        </mxCell>
        <mxCell id="WFKwsRUmoUcgAKDtaNSG-20" value="" style="endArrow=classic;html=1;rounded=0;fontSize=37;strokeWidth=2;exitX=0.5;exitY=1;exitDx=0;exitDy=0;" edge="1" parent="1" source="WFKwsRUmoUcgAKDtaNSG-4">
          <mxGeometry width="50" height="50" relative="1" as="geometry">
            <mxPoint x="480" y="635" as="sourcePoint" />
            <mxPoint x="490" y="720" as="targetPoint" />
          </mxGeometry>
        </mxCell>
        <mxCell id="WFKwsRUmoUcgAKDtaNSG-21" value="" style="endArrow=classic;html=1;rounded=0;fontSize=37;strokeWidth=2;exitX=0.5;exitY=1;exitDx=0;exitDy=0;" edge="1" parent="1" source="WFKwsRUmoUcgAKDtaNSG-3">
          <mxGeometry width="50" height="50" relative="1" as="geometry">
            <mxPoint x="410" y="590" as="sourcePoint" />
            <mxPoint x="340" y="720" as="targetPoint" />
          </mxGeometry>
        </mxCell>
        <mxCell id="WFKwsRUmoUcgAKDtaNSG-22" value="" style="endArrow=classic;html=1;rounded=0;fontSize=37;strokeWidth=2;exitX=0.5;exitY=1;exitDx=0;exitDy=0;" edge="1" parent="1" source="WFKwsRUmoUcgAKDtaNSG-1">
          <mxGeometry width="50" height="50" relative="1" as="geometry">
            <mxPoint x="240" y="630" as="sourcePoint" />
            <mxPoint x="400" y="720" as="targetPoint" />
          </mxGeometry>
        </mxCell>
      </root>
    </mxGraphModel>
  </diagram>
</mxfile>
